<?xml version="1.0" encoding="UTF-8"?>
<svg width="22px" height="16px" viewBox="0 0 22 16" version="1.1" xmlns="http://www.w3.org/2000/svg" xmlns:xlink="http://www.w3.org/1999/xlink">
    <!-- Generator: Sketch 46.2 (44496) - http://www.bohemiancoding.com/sketch -->
    <title>Fill 6</title>
    <desc>Created with Sketch.</desc>
    <defs></defs>
    <g id="Page-1" stroke="none" stroke-width="1" fill="none" fill-rule="evenodd">
        <g id="Apple-TV" transform="translate(-104.000000, -1383.000000)" fill="#000000">
            <g id="Group-5" transform="translate(104.000000, 1344.000000)">
                <g id="Page-1" transform="translate(0.000000, 39.000000)">
                    <g id="Group-8">
                        <path d="M16.1480345,3.7629757 C15.2070833,1.95004112 14.9829764,0.0915738318 14.9776901,0.0473121495 L13.4641867,0.216209346 C13.4737913,0.30248972 13.710332,2.35348037 14.7761428,4.42824673 C15.3804125,5.60462056 16.1287508,6.55153645 17.0028422,7.25905047 L-2.23362367e-05,7.25905047 L-2.23362367e-05,8.78824673 L17.0028422,8.78824673 C16.1287508,9.49576075 15.3804125,10.4427514 14.7761428,11.6190505 C13.710332,13.6938168 13.4737913,15.7448075 13.4641867,15.8310879 L14.9777646,15.999985 C14.9797748,15.9816673 15.191299,14.1463776 16.1294954,12.3201346 C17.333493,9.97650841 19.1256037,8.78824673 21.4562411,8.78824673 L21.4562411,7.25905047 C19.1379631,7.25905047 17.3521065,6.0827514 16.1480345,3.7629757" id="Fill-6"></path>
                    </g>
                </g>
            </g>
        </g>
    </g>
</svg>