<?xml version="1.0" encoding="UTF-8"?>
<svg width="78px" height="58px" viewBox="0 0 78 58" version="1.1" xmlns="http://www.w3.org/2000/svg" xmlns:xlink="http://www.w3.org/1999/xlink">
    <!-- Generator: Sketch 49.3 (51167) - http://www.bohemiancoding.com/sketch -->
    <title>arrow__white-large</title>
    <desc>Created with Sketch.</desc>
    <defs></defs>
    <g id="Page-1" stroke="none" stroke-width="1" fill="none" fill-rule="evenodd">
        <g id="Artboard" transform="translate(-88.000000, -63.000000)" fill="#FFFFFF" fill-rule="nonzero">
            <g id="arrow__white-large" transform="translate(88.000000, 63.000000)">
                <path d="M58.5366249,13.6407869 C55.1256768,7.06889907 54.3132893,0.33195514 54.2941266,0.171506542 L48.8076768,0.783758879 C48.8424934,1.09652523 49.6999536,8.53136636 53.5635176,16.0523944 C55.7539952,20.3167495 58.4667218,23.7493196 61.6353031,26.3140579 L-8.09688581e-05,26.3140579 L-8.09688581e-05,31.8573944 L61.6353031,31.8573944 C58.4667218,34.4221327 55.7539952,37.8549738 53.5635176,42.1190579 C49.6999536,49.640086 48.8424934,57.0749271 48.8076768,57.3876935 L54.2943965,57.9999458 C54.3016837,57.9335439 55.0684588,51.2806187 58.4694208,44.6604879 C62.8339121,36.164843 69.3303135,31.8573944 77.778874,31.8573944 L77.778874,26.3140579 C69.3751163,26.3140579 62.9013862,22.0499738 58.5366249,13.6407869" id="Fill-6"></path>
            </g>
        </g>
    </g>
</svg>